<?xml version="1.0" standalone="no"?>
<!DOCTYPE svg PUBLIC "-//W3C//DTD SVG 20010904//EN"
 "http://www.w3.org/TR/2001/REC-SVG-20010904/DTD/svg10.dtd">
<svg version="1.0" xmlns="http://www.w3.org/2000/svg"
 width="128.000000pt" height="128.000000pt" viewBox="0 0 128.000000 128.000000"
 preserveAspectRatio="xMidYMid meet">

<g transform="translate(0.000000,128.000000) scale(0.100000,-0.100000)"
fill="#000000" stroke="none">
<path d="M144 1261 c-46 -28 -64 -59 -64 -109 0 -81 51 -132 133 -132 134 0
175 194 52 246 -47 19 -84 18 -121 -5z"/>
<path d="M895 992 c-39 -26 -107 -71 -153 -100 l-83 -52 21 -30 c18 -25 25
-28 41 -20 18 10 19 6 19 -107 l0 -118 62 5 63 5 3 56 c4 73 39 112 102 112
60 0 97 -38 106 -111 l7 -54 45 6 c24 3 51 6 58 6 11 0 14 23 14 105 0 101 1
105 19 95 16 -8 23 -5 40 19 16 22 18 31 8 39 -16 12 -298 192 -300 191 -1 0
-34 -22 -72 -47z"/>
<path d="M220 765 c-80 -52 -146 -98 -148 -104 -2 -5 4 -21 13 -35 14 -21 21
-24 36 -15 18 9 19 4 19 -109 l0 -118 65 10 65 9 0 58 c0 47 5 63 26 88 71 85
184 25 184 -98 l0 -39 60 -4 60 -3 0 108 c0 104 4 119 27 96 7 -7 17 -2 33 21
12 17 21 33 19 34 -12 10 -296 189 -304 191 -5 2 -75 -39 -155 -90z"/>
<path d="M947 664 c-4 -4 -7 -26 -7 -49 0 -41 1 -41 31 -37 28 4 30 6 27 46
-2 32 -7 42 -23 44 -12 2 -24 0 -28 -4z"/>
<path d="M1030 504 c-118 -6 -245 -13 -282 -13 l-68 -1 0 -50 c0 -41 3 -50 18
-50 14 0 512 -120 565 -136 16 -5 17 6 17 130 0 123 -2 136 -17 134 -10 0
-115 -7 -233 -14z"/>
<path d="M347 504 c-4 -4 -7 -27 -7 -51 0 -41 1 -43 31 -43 30 0 30 1 27 48
-2 38 -7 48 -23 50 -12 2 -24 0 -28 -4z"/>
<path d="M0 404 c0 -44 1 -45 28 -42 24 3 27 7 30 46 3 41 2 42 -27 42 -30 0
-31 -1 -31 -46z"/>
<path d="M320 334 c-25 -3 -107 -16 -182 -30 l-138 -26 0 -139 0 -139 640 0
641 0 -3 87 -3 87 -210 53 c-320 81 -434 102 -575 107 -69 2 -145 2 -170 0z"/>
</g>
</svg>
