<?xml version="1.0" standalone="no"?>
<!DOCTYPE svg PUBLIC "-//W3C//DTD SVG 20010904//EN"
 "http://www.w3.org/TR/2001/REC-SVG-20010904/DTD/svg10.dtd">
<svg version="1.0" xmlns="http://www.w3.org/2000/svg"
 width="130.000000pt" height="130.000000pt" viewBox="0 0 130.000000 130.000000"
 preserveAspectRatio="xMidYMid meet">

<g transform="translate(0.000000,130.000000) scale(0.100000,-0.100000)"
fill="#000000" stroke="none">
<path d="M764 1292 c-26 -18 -125 -152 -119 -162 10 -17 442 -230 465 -230 12
0 32 11 46 25 23 23 25 30 22 116 l-3 90 -185 80 c-213 91 -212 91 -226 81z"/>
<path d="M447 1034 c-76 -28 -148 -59 -162 -68 -13 -9 -56 -69 -94 -134 -86
-144 -88 -158 -29 -283 36 -78 58 -108 58 -80 0 15 53 61 102 88 26 14 48 30
48 35 0 5 -7 23 -16 41 -11 19 -13 32 -6 35 6 2 34 20 64 40 l53 38 46 -20 47
-19 -39 -60 c-34 -52 -53 -68 -137 -119 -103 -61 -132 -95 -132 -153 0 -37 31
-89 62 -106 50 -27 99 -16 204 47 54 33 120 68 147 78 65 24 156 95 205 158
41 55 131 210 157 272 l15 36 -227 113 -228 114 -138 -53z"/>
<path d="M181 279 c-28 -45 -28 -126 -1 -179 11 -22 39 -52 62 -67 34 -23 53
-28 103 -28 78 0 132 33 164 97 20 42 29 127 15 141 -4 3 -29 -5 -57 -20 -92
-46 -198 -20 -247 60 l-19 30 -20 -34z"/>
</g>
</svg>
